<?xml version="1.0" standalone="no"?>
<!DOCTYPE svg PUBLIC "-//W3C//DTD SVG 20010904//EN"
 "http://www.w3.org/TR/2001/REC-SVG-20010904/DTD/svg10.dtd">
<svg version="1.0" xmlns="http://www.w3.org/2000/svg"
 width="600.000000pt" height="600.000000pt" viewBox="0 0 600.000000 600.000000"
 preserveAspectRatio="xMidYMid meet">
<metadata>
Created by potrace 1.11, written by Peter Selinger 2001-2013
</metadata>
<g transform="translate(0.000000,600.000000) scale(0.100000,-0.100000)"
fill="#000000" stroke="none">
<path d="M5153 3253 c-7 -16 -23 -54 -37 -85 -35 -80 -55 -127 -56 -136 -1 -4
-5 -11 -10 -17 -4 -5 -27 -55 -50 -110 -23 -55 -55 -128 -71 -163 -16 -34 -29
-65 -29 -68 0 -6 71 -37 74 -32 2 2 33 73 71 158 37 85 96 220 131 299 35 79
64 147 64 151 0 7 -53 30 -69 30 -3 0 -12 -12 -18 -27z"/>
<path d="M834 3251 c-9 -10 -4 -551 6 -552 6 -1 22 -2 38 -3 l27 -1 3 118 c2
83 6 117 15 118 7 1 77 2 157 3 l145 1 3 160 2 160 -195 0 c-108 0 -198 -2
-201 -4z m311 -157 l0 -79 -115 0 -115 0 -3 74 c-2 41 1 77 7 80 5 3 58 6 118
5 l108 0 0 -80z"/>
<path d="M3273 3253 c-7 -3 -9 -541 -1 -548 2 -2 20 -6 41 -8 l37 -4 0 241 0
242 33 -2 c17 -1 35 -2 38 -3 4 -1 7 -85 7 -188 0 -303 0 -292 20 -288 9 2 27
4 40 4 l23 1 -1 163 c-2 288 -1 307 13 307 7 0 25 -12 39 -27 l26 -28 -2 -203
c-1 -222 0 -226 56 -215 l26 5 1 223 0 224 -50 52 -50 53 -144 1 c-79 0 -147
-1 -152 -2z"/>
<path d="M4081 3173 c0 -45 -1 -86 -2 -90 -1 -4 0 -12 1 -18 4 -21 -1 -228 -6
-236 -3 -5 -2 -9 3 -9 4 0 7 -28 5 -62 l-2 -63 181 1 c235 1 224 -7 220 175
-1 19 -9 44 -18 55 -47 52 -47 51 -12 85 31 30 32 33 31 117 -2 129 2 127
-221 127 l-179 0 -1 -82z m319 -49 c0 -46 -4 -55 -33 -81 -31 -27 -38 -29
-108 -27 -40 1 -80 2 -86 3 -14 1 -16 142 -2 151 4 3 57 5 118 5 l111 0 0 -51z
m-26 -217 c16 -18 23 -41 25 -76 2 -58 17 -52 -134 -52 -47 0 -89 0 -94 0 -9
1 -13 138 -5 152 2 3 44 5 94 4 85 -1 93 -3 114 -28z"/>
<path d="M217 3113 l-137 -138 139 -139 140 -140 26 24 c14 13 25 28 25 32 0
5 -47 57 -105 115 -58 58 -105 107 -105 109 0 2 47 51 105 109 58 57 105 108
105 113 0 8 -42 52 -51 52 -2 0 -66 -62 -142 -137z"/>
<path d="M5638 3223 l-27 -27 110 -109 c127 -127 129 -97 -13 -237 -49 -48
-88 -91 -88 -97 0 -5 11 -20 25 -33 l26 -24 139 139 140 140 -137 137 c-76 76
-140 138 -143 138 -3 0 -18 -12 -32 -27z"/>
<path d="M1645 3085 c-2 -5 -3 -23 -2 -40 l2 -30 158 0 158 0 -3 -40 -3 -40
-155 1 -156 0 -1 -118 c-1 -65 1 -118 5 -119 43 -6 385 -2 390 5 8 14 6 375
-2 384 -12 11 -388 9 -391 -3z m313 -268 c2 -25 -1 -37 -10 -38 -18 -1 -189
-1 -210 0 -12 1 -16 10 -16 34 0 17 2 34 4 37 1 3 54 6 116 5 l113 0 3 -38z"/>
<path d="M2461 3086 c-4 -6 -7 -73 -7 -149 l2 -137 51 -52 51 -51 130 -1 c71
-1 138 1 148 4 18 5 19 17 19 198 1 125 -3 192 -10 193 -5 0 -18 2 -29 4 -40
8 -42 0 -42 -160 1 -148 0 -155 -19 -156 -11 0 -53 -1 -93 -1 -66 -1 -74 2
-97 26 -29 31 -27 20 -30 156 -3 145 -1 137 -35 137 -17 0 -34 -5 -39 -11z"/>
</g>
</svg>
